<svg width="38" height="38" viewBox="0 0 38 38" xmlns="http://www.w3.org/2000/svg"><g fill="#2C7DD5" fill-rule="evenodd"><path d="M24.7 10H13.3c-1.82 0-3.3 1.48-3.3 3.3v11.398C10 26.518 11.48 28 13.3 28h11.4c1.82 0 3.3-1.48 3.3-3.302V13.3c0-1.82-1.48-3.3-3.3-3.3zM19 24.925A5.934 5.934 0 0 1 13.072 19 5.934 5.934 0 0 1 19 13.072c3.268 0 5.924 2.66 5.924 5.926A5.934 5.934 0 0 1 19 24.924zM25.115 14.3a1.403 1.403 0 0 1 0-2.806c.772 0 1.403.63 1.403 1.403 0 .774-.632 1.402-1.404 1.402z"/><path d="M19 16c-1.654 0-3 1.345-3 3 0 1.654 1.346 3 3 3s3-1.346 3-3-1.346-3-3-3z"/><path d="M19 0C8.507 0 0 8.507 0 19s8.507 19 19 19 19-8.507 19-19S29.493 0 19 0zm11.43 24.714a5.772 5.772 0 0 1-5.766 5.767H13.338a5.773 5.773 0 0 1-5.768-5.766V13.39a5.775 5.775 0 0 1 5.768-5.768h11.326a5.774 5.774 0 0 1 5.766 5.767v11.324z"/></g></svg>